<svg xmlns="http://www.w3.org/2000/svg" viewBox="0 0 64 64">
  <defs>
    <linearGradient id="g" x1="0" y1="0" x2="0" y2="1">
      <stop offset="0" stop-color="#7cbcff"/>
      <stop offset="0.45" stop-color="#4285f4"/>
      <stop offset="1" stop-color="#1d4fc0"/>
    </linearGradient>
  </defs>
  <rect width="64" height="64" rx="14" fill="url(#g)"/>
  <path d="M20 13h16l9 9v26a2.5 2.5 0 0 1-2.5 2.5h-22A2.5 2.5 0 0 1 18 48V15.5A2.5 2.5 0 0 1 20.5 13z" fill="#fff" opacity="0.96"/>
  <path d="M36 13v7a2 2 0 0 0 2 2h7z" fill="#c7dcfb"/>
  <rect x="23" y="29" width="19" height="2.8" rx="1.4" fill="#3f7ef0"/>
  <rect x="23" y="35" width="19" height="2.8" rx="1.4" fill="#3f7ef0" opacity="0.85"/>
  <rect x="23" y="41" width="12" height="2.8" rx="1.4" fill="#3f7ef0" opacity="0.6"/>
  <circle cx="45" cy="45" r="9.5" fill="#ffffff" fill-opacity="0.3" stroke="#fff" stroke-opacity="0.6" stroke-width="0.8"/>
  <path d="M45 38.5l1.8 4.7 4.7 1.8-4.7 1.8-1.8 4.7-1.8-4.7-4.7-1.8 4.7-1.8z" fill="#fff"/>
</svg>
